HIERARCHY
ROOT pelvis
{
  OFFSET 0 100 0
  CHANNELS 6 Xposition Yposition Zposition Zrotation Xrotation Yrotation
  JOINT pelvis_right_femur
  {
    OFFSET -10.78128 -3.44521 -0.5502486
    CHANNELS 3 Zrotation Xrotation Yrotation
    JOINT right_femur_tibia
    {
      OFFSET -0.8047443 -44.0398 -0.1307829
      CHANNELS 3 Zrotation Xrotation Yrotation
      JOINT right_tibia_foot
      {
        OFFSET 3.006224 -47.83518 -5
        CHANNELS 3 Zrotation Xrotation Yrotation
        End Site
        {
          OFFSET 0 -5 15
        }
      }
    }
  }
  JOINT pelvis_left_femur
  {
    OFFSET 10.78128 -3.44521 -0.5502486
    CHANNELS 3 Zrotation Xrotation Yrotation
    JOINT left_femur_tibia
    {
      OFFSET 0.8047443 -44.0398 -0.1307829
      CHANNELS 3 Zrotation Xrotation Yrotation
      JOINT left_tibia_foot
      {
        OFFSET -4.370144 -48.10324 -4.275266
        CHANNELS 3 Zrotation Xrotation Yrotation
        End Site
        {
          OFFSET 0 -5 15
        }
      }
    }
  }
  JOINT pelvis_spine1
  {
    OFFSET 0 6.468898 -3.129235
    CHANNELS 3 Zrotation Xrotation Yrotation
    JOINT spine1
    {
      OFFSET 0 23.15396 4.99043
      CHANNELS 3 Zrotation Xrotation Yrotation
      JOINT spine2
      {
        OFFSET 0 20.79997 -5.064912
        CHANNELS 3 Zrotation Xrotation Yrotation
        JOINT neck
        {
          OFFSET 0 14.38658 9.616178
          CHANNELS 3 Zrotation Xrotation Yrotation
          End Site
          {
            OFFSET 0 20 0
          }
        }
      }
      JOINT right_manubrium
      {
        OFFSET -5.722621 16.35077 3.967754
        CHANNELS 3 Zrotation Xrotation Yrotation
        JOINT right_clavicle
        {
          OFFSET -13.16364 1.694482 -4.693211
          CHANNELS 3 Zrotation Xrotation Yrotation
          JOINT right_humerus
          {
            OFFSET -28.5034 -0.3100689 -2.792744
            CHANNELS 3 Zrotation Xrotation Yrotation
            JOINT right_radius
            {
              OFFSET -25.15693 0.02248979 -1.271978
              CHANNELS 3 Zrotation Xrotation Yrotation
              End Site
              {
                OFFSET -15 0 0
              }
            }
          }
        }
      }
      JOINT left_manubrium
      {
        OFFSET 5.722621 16.35077 3.967754
        CHANNELS 3 Zrotation Xrotation Yrotation
        JOINT left_clavicle
        {
          OFFSET 13.16364 1.694482 -4.693211
          CHANNELS 3 Zrotation Xrotation Yrotation
          JOINT left_humerus
          {
            OFFSET 29.39168 -1.063119 -2.237045
            CHANNELS 3 Zrotation Xrotation Yrotation
            JOINT left_radius
            {
              OFFSET 24.59957 -0.9528479 0.9047498
              CHANNELS 3 Zrotation Xrotation Yrotation
              End Site
              {
                OFFSET 15 -0 -0
              }
            }
          }
        }
      }
    }
  }
}
MOTION
Frames: 17
Frame Time: 0.0416666666667
-10.73184 109.4969 3016.657 -0.8991522 -6.381624 -6.027936 6.047859 -11.5909 3.293741 -0 13.85783 -0 -5.356427 -4.100704 -5.278379 -2.88929 4.192816 -6.918735 -0 52.84213 -0 -5.838118 -8.675452 13.86164 0.4154483 -2.23616 4.106626 1.245322 14.47157 -7.360617 1.220389 22.3003 4.201977 2.351088 -22.22684 5.571779 -4.153299 -23.41987 11.68265 96.02996 18.15042 -19.27907 -0 0 11.1009 -18.17794 6.886771 8.327302 4.819954 -26.52944 -8.282626 -87.85848 10.59234 18.78029 0 0 -19.3043 17.09339 14.68229 -8.63752
-11.66906 110.6493 3022.579 -0.9505271 -6.671558 -6.75911 6.266292 -6.232663 3.970131 -0 13.66638 -0 -5.598433 -6.681568 -4.849714 -2.275756 -0.9712213 -6.766765 -0 55.21741 -0 -5.503338 -6.827131 14.98019 0.5133057 -2.281126 4.732136 0.9482435 14.60516 -6.820483 1.239669 22.28851 3.976766 2.229207 -22.21856 5.413378 -4.388378 -24.59428 11.68325 95.21272 17.86962 -17.52701 -0 0 13.12763 -18.56432 6.755531 8.957472 4.471387 -25.76645 -8.151177 -89.18571 10.71772 21.66832 0 0 -16.96362 16.28148 15.00007 -7.520884
-12.53213 111.6071 3028.358 -1.002131 -6.71279 -7.616282 6.194185 -1.157902 4.043001 -0 12.33472 -0 -5.809086 -9.070104 -4.160847 -1.503697 -6.178249 -6.36034 -0 53.16098 -0 -5.030794 -5.720193 15.96563 0.5988065 -2.313981 5.397525 0.6293388 14.72551 -6.238688 1.254742 22.27185 3.759058 2.119999 -22.1901 5.248819 -4.586612 -25.79721 11.68443 94.30317 17.63586 -15.64912 -0 0 15.27992 -19.00233 6.641789 9.638908 4.118802 -24.93281 -7.980908 -90.62313 10.765 24.68108 0 0 -14.44567 15.41222 15.27955 -6.34166
-13.29761 112.1325 3034.136 -1.032506 -6.572922 -8.513771 5.896245 3.472726 3.599878 -0 10.32899 -0 -5.91893 -11.04217 -3.281335 -0.607535 -11.14185 -5.703508 -0 47.25752 -0 -4.48103 -5.327153 16.77406 0.6579269 -2.321568 6.079478 0.2948938 14.81121 -5.627806 1.266185 22.25209 3.56639 2.033203 -22.11999 5.089924 -4.716406 -26.95406 11.68613 93.29656 17.48497 -13.69218 -0 0 17.48306 -19.50733 6.573009 10.36138 3.781196 -24.03367 -7.762031 -92.10598 10.74503 27.67061 0 0 -11.82689 14.47851 15.4791 -5.101166
-13.94967 112.0987 3039.993 -1.025046 -6.33343 -9.380868 5.458389 7.57661 2.888357 -0 8.375654 -0 -5.908736 -12.56995 -2.320503 0.3038267 -15.62866 -4.963818 -0 38.93365 -0 -3.875378 -5.475666 17.47053 0.6753607 -2.289531 6.758147 -0.05077532 14.83994 -4.996446 1.274832 22.23122 3.416206 1.978866 -21.98299 4.948061 -4.744193 -27.99255 11.6896 92.17388 17.45496 -11.68704 -0 0 19.67361 -20.10344 6.578499 11.12127 3.475936 -23.06676 -7.483244 -93.57041 10.68288 30.50197 0 0 -9.167838 13.4676 15.55302 -3.793807
-14.48422 111.514 3045.939 -0.9763919 -6.089404 -10.16962 4.944635 11.02056 2.188575 -0 7.256025 -0 -5.778232 -13.63283 -1.421618 1.056462 -19.35039 -4.368867 -0 30.03189 -0 -3.260803 -5.940944 18.11549 0.6396264 -2.209307 7.391919 -0.3902507 14.79472 -4.376552 1.281549 22.21197 3.326157 1.965222 -21.76598 4.837306 -4.646439 -28.81966 11.69625 90.96263 17.57035 -9.73291 -0 0 21.71787 -20.78566 6.678135 11.88669 3.225992 -22.06901 -7.149506 -94.90715 10.61806 32.96859 0 0 -6.620698 12.41067 15.46551 -2.466035
-14.91341 110.5166 3051.95 -0.8973738 -5.953231 -10.84972 4.380539 13.65664 1.712162 -0 7.644171 -0 -5.518073 -14.10771 -0.7342992 1.473076 -22.0003 -4.090204 -0 22.3571 -0 -2.747711 -6.505688 18.69896 0.5492633 -2.085195 7.915079 -0.688825 14.67491 -3.830283 1.28568 22.19663 3.30981 1.996784 -21.48263 4.770605 -4.422152 -29.33669 11.70733 89.76034 17.83686 -8.017172 -0 0 23.40328 -21.49822 6.869948 12.5859 3.059123 -21.13498 -6.791907 -95.96107 10.59283 34.80478 0 0 -4.443453 11.414 15.21354 -1.252897
-15.26507 109.331 3058.017 -0.8051132 -6.026867 -11.39658 3.75954 15.42553 1.538083 -0 9.928315 -0 -5.105133 -13.80643 -0.3639584 1.46125 -23.38609 -4.161383 -0 17.08432 -0 -2.476437 -7.022295 19.14926 0.4165224 -1.935387 8.270587 -0.9105959 14.50191 -3.421041 1.284682 22.18528 3.367627 2.07111 -21.17306 4.751286 -4.099276 -29.49712 11.72333 88.69345 18.23811 -6.727461 -0 0 24.544 -22.15339 7.126147 13.13893 2.993469 -20.37657 -6.456501 -96.60737 10.62844 35.82748 0 0 -2.873367 10.61779 14.84168 -0.3247631
-15.57381 108.2024 3064.167 -0.7101833 -6.353585 -11.7816 3.065057 16.36311 1.625016 -0 14.1232 -0 -4.520774 -12.61011 -0.3406416 1.039246 -23.49264 -4.50718 -0 14.41968 -0 -2.530981 -7.456612 19.3985 0.2635406 -1.783578 8.447236 -1.041078 14.30932 -3.17407 1.27663 22.17616 3.482422 2.176446 -20.88363 4.770299 -3.726703 -29.34715 11.74276 87.84893 18.73194 -5.936042 -0 0 25.10277 -22.67901 7.405077 13.50535 3.022349 -19.85566 -6.179191 -96.83591 10.71401 36.06768 0 0 -1.979407 10.10436 14.42472 0.2274029
-15.86915 107.3422 3070.442 -0.6092309 -6.896744 -11.97086 2.293183 16.48923 1.881978 -0 19.94719 -0 -3.771404 -10.55468 -0.6372387 0.2772556 -22.39714 -5.049571 -0 13.83481 -0 -2.888016 -7.875624 19.43174 0.1116668 -1.648049 8.473453 -1.088521 14.12587 -3.074839 1.261783 22.16751 3.629224 2.296995 -20.64574 4.813533 -3.35224 -28.98611 11.76301 87.25247 19.26491 -5.598283 -0 0 25.172 -23.045 7.670822 13.69169 3.1212 -19.5698 -5.973956 -96.73008 10.82099 35.70876 0 0 -1.675764 9.871502 14.02821 0.4199933
-16.16812 106.9034 3076.862 -0.4876202 -7.558602 -11.93007 1.466103 15.71206 2.220901 -0 26.95213 -0 -2.893957 -7.80721 -1.20643 -0.7581598 -20.14904 -5.765984 -0 14.54931 -0 -3.439263 -8.400089 19.27959 -0.02658458 -1.537368 8.377036 -1.064948 13.96604 -3.102903 1.24166 22.1589 3.790567 2.421267 -20.47198 4.872055 -3.005136 -28.4867 11.78162 86.90593 19.79837 -5.657074 -0 0 24.84298 -23.24713 7.904886 13.71547 3.270144 -19.49786 -5.842418 -96.36652 10.92853 34.90024 0 0 -1.86951 9.886946 13.68586 0.302057
-16.47383 106.9682 3083.4 -0.3288351 -8.199969 -11.63465 0.6442992 13.83713 2.566808 -0 34.51454 -0 -1.963518 -4.647322 -1.989332 -1.999209 -16.75966 -6.67198 -0 15.82343 -0 -4.027517 -9.157479 18.99561 -0.1459288 -1.454497 8.160164 -0.9718196 13.83402 -3.257354 1.217815 22.15123 3.960493 2.54372 -20.36713 4.945265 -2.699166 -27.86391 11.79614 86.83216 20.3128 -6.120511 -0 0 24.12439 -23.27737 8.101425 13.57398 3.464898 -19.64195 -5.788203 -95.75918 11.02978 33.66361 0 0 -2.560076 10.14008 13.40826 -0.1100762
-16.77777 107.5287 3089.97 -0.1288094 -8.640771 -11.08849 -0.0580737 10.68505 2.854603 -0 41.64711 -0 -1.122645 -1.531963 -2.882655 -3.331044 -12.33904 -7.777741 -0 17.01362 -0 -4.454738 -10.23417 18.65697 -0.2415424 -1.403275 7.809074 -0.8024094 13.73396 -3.552115 1.19132 22.14586 4.136505 2.66054 -20.33916 5.035269 -2.447688 -27.10896 11.80461 87.08246 20.7868 -7.044125 -0 0 22.97322 -23.11461 8.253065 13.24692 3.708309 -20.02789 -5.821891 -94.88798 11.11239 31.95323 0 0 -3.807801 10.64893 13.20227 -0.8371795
-17.06656 108.4614 3096.43 0.08721302 -8.681888 -10.34552 -0.4808898 6.275389 3.034519 -0 46.90074 -0 -0.5974078 0.8900179 -3.705317 -4.560983 -7.271248 -9.045749 -0 17.59585 -0 -4.50836 -11.62031 18.3631 -0.3056689 -1.389939 7.323837 -0.5560144 13.67499 -3.989839 1.163169 22.14375 4.309967 2.765463 -20.39767 5.139099 -2.271949 -26.2431 11.80692 87.69698 21.17619 -8.44349 -0 0 21.39102 -22.74596 8.343216 12.72756 3.993813 -20.66874 -5.952979 -93.76893 11.14218 29.78878 0 0 -5.619556 11.42495 13.07759 -1.889302
-17.3353 109.5314 3102.63 0.2609459 -8.192327 -9.509479 -0.4835258 0.9390771 3.071035 -0 48.75411 -0 -0.6169715 2.028642 -4.24907 -5.460707 -2.19769 -10.35006 -0 17.27416 -0 -4.068257 -13.18826 18.17829 -0.3317542 -1.417659 6.738056 -0.2493512 13.66471 -4.540953 1.13519 22.14544 4.465776 2.850152 -20.54095 5.247371 -2.191628 -25.33423 11.80501 88.64991 21.42349 -10.22317 -0 0 19.48749 -22.19659 8.355536 12.05107 4.298274 -21.52645 -6.176026 -92.49204 11.0807 27.32506 0 0 -7.868502 12.42778 13.0359 -3.209416
-17.60099 110.4562 3108.492 0.3287986 -7.210189 -8.694283 -0.04308743 -4.806547 2.922301 -0 46.43788 -0 -1.243433 1.772119 -4.422653 -5.881242 2.306524 -11.47024 -0 16.08617 -0 -3.232913 -14.75864 18.04293 -0.3219222 -1.480547 6.099975 0.09131295 13.69791 -5.157815 1.109868 22.15125 4.59426 2.910091 -20.74921 5.352552 -2.205157 -24.44672 11.80087 89.8492 21.49984 -12.22302 -0 0 17.41921 -21.52534 8.292042 11.2797 4.596678 -22.52362 -6.467807 -91.16882 10.92131 24.75314 0 0 -10.36395 13.56944 13.05863 -4.683462
-17.90266 111.0029 3114.052 0.2631511 -5.940279 -7.976585 0.7128592 -10.50465 2.549998 -0 40.46236 -0 -2.303394 0.5904168 -4.320369 -5.838849 6.044491 -12.18162 -0 14.40108 -0 -2.294064 -16.19546 17.78882 -0.2882163 -1.565205 5.438748 0.4477349 13.75559 -5.806583 1.088655 22.16108 4.700626 2.949475 -20.99403 5.455789 -2.284061 -23.58878 11.79507 91.19432 21.42927 -14.32631 -0 0 15.2802 -20.78917 8.17601 10.46178 4.880997 -23.5924 -6.798989 -89.85649 10.68907 22.15696 0 0 -12.98255 14.7678 13.1103 -6.211169
